<?xml version="1.0" standalone="no"?>
<!DOCTYPE svg PUBLIC "-//W3C//DTD SVG 20010904//EN"
 "http://www.w3.org/TR/2001/REC-SVG-20010904/DTD/svg10.dtd">
<svg version="1.0" xmlns="http://www.w3.org/2000/svg"
 width="512.000000pt" height="512.000000pt" viewBox="0 0 512.000000 512.000000"
 preserveAspectRatio="xMidYMid meet">
<metadata>
Created by potrace 1.14, written by Peter Selinger 2001-2017
</metadata>
<g transform="translate(0.000000,512.000000) scale(0.100000,-0.100000)"
fill="#000000" stroke="none">
<path d="M4459 4423 c-72 -44 -74 -153 -4 -199 51 -34 139 -13 166 39 57 105
-62 223 -162 160z"/>
<path d="M340 4416 c-22 -22 -4 -26 115 -26 l125 0 0 -755 0 -754 -97 0 c-141
1 -143 1 -143 -16 0 -13 36 -15 258 -17 141 -1 327 -2 412 -3 85 -1 185 1 222
6 90 11 207 51 298 102 88 50 209 167 259 250 34 58 77 165 86 215 2 15 9 49
14 77 5 27 9 88 9 135 -1 287 -102 503 -303 645 -90 63 -192 106 -340 142 -46
11 -904 10 -915 -1z m855 -36 c246 -63 402 -256 431 -534 4 -34 8 -64 11 -69
5 -8 4 -245 -1 -287 -22 -201 -86 -358 -188 -466 -69 -73 -156 -117 -278 -140
-41 -7 -255 -12 -321 -6 l-45 4 -2 750 c-1 412 0 753 3 758 8 13 334 5 390
-10z"/>
<path d="M3950 3828 c-50 -9 -129 -59 -162 -103 -13 -16 -35 -55 -49 -85 l-26
-54 1 99 c1 55 0 106 -2 113 -3 9 -48 12 -178 12 -159 0 -174 -2 -174 -17 0
-16 10 -18 85 -16 l85 2 0 -445 c0 -418 -1 -445 -17 -443 -10 1 -48 1 -85 0
-53 -1 -68 -4 -68 -16 0 -13 37 -15 275 -15 238 0 275 2 275 15 0 16 -7 17
-118 15 l-74 -1 4 318 c4 301 5 321 26 374 48 120 117 193 195 206 29 4 40 1
60 -19 27 -27 28 -60 5 -128 -24 -72 4 -110 81 -110 85 1 121 42 115 132 -9
125 -111 191 -254 166z"/>
<path d="M2560 3811 c-170 -54 -306 -179 -366 -336 -26 -68 -26 -218 -1 -295
27 -78 99 -183 163 -234 105 -86 222 -126 349 -121 134 6 253 61 354 166 158
164 183 399 62 588 -121 187 -373 292 -561 232z m226 -32 c131 -36 188 -170
188 -444 1 -222 -24 -332 -91 -411 -43 -49 -80 -63 -179 -69 -172 -10 -261 68
-299 265 -14 77 -15 349 0 420 21 104 75 194 136 226 62 32 160 37 245 13z"/>
<path d="M4260 3795 c0 -16 10 -18 108 -16 l62 1 0 -445 0 -445 -85 0 c-69 0
-85 -3 -85 -15 0 -13 36 -15 264 -15 225 0 265 2 270 15 4 13 -9 15 -83 15
l-88 0 -1 308 c0 169 -1 376 -1 460 l-1 152 -180 0 c-153 0 -180 -2 -180 -15z"/>
<path d="M4340 2544 c-155 -28 -325 -102 -440 -192 -46 -36 -210 -202 -210
-212 0 -3 -33 -5 -72 -3 -155 4 -327 -98 -397 -236 -25 -48 -26 -82 -5 -127
19 -40 43 -44 84 -14 68 48 126 35 209 -47 l54 -54 -26 -27 c-50 -52 -56 -118
-15 -173 42 -56 143 -63 190 -14 13 14 27 25 32 25 14 0 96 -83 113 -114 22
-42 19 -90 -9 -138 -29 -52 -27 -71 14 -91 73 -35 168 10 260 125 72 89 107
189 102 289 l-3 56 84 77 c213 195 331 446 339 721 3 106 -6 151 -34 158 -36
9 -195 4 -270 -9z"/>
<path d="M968 2515 c-2 -1 -23 -5 -48 -8 -200 -24 -398 -203 -476 -432 -24
-69 -28 -96 -28 -200 -1 -97 4 -133 21 -190 58 -184 211 -352 378 -414 119
-45 251 -46 404 -2 108 30 143 31 173 4 38 -34 43 -15 43 175 1 120 -3 181 -9
179 -6 -2 -20 -35 -32 -73 -67 -219 -171 -297 -393 -291 -112 3 -153 15 -223
64 -72 49 -137 189 -155 335 -10 81 -10 357 1 426 30 206 111 332 244 379 91
32 234 29 312 -8 97 -46 164 -138 200 -271 7 -27 17 -48 21 -48 5 0 9 79 9
175 0 182 -3 193 -40 160 -31 -28 -69 -27 -164 6 -63 22 -113 33 -163 34 -39
2 -73 2 -75 0z"/>
<path d="M2168 2025 c-2 -2 -23 -6 -47 -9 -73 -10 -167 -60 -226 -120 -153
-157 -156 -369 -8 -527 201 -215 530 -159 660 111 23 47 27 68 28 145 0 82 -3
96 -32 156 -61 124 -185 216 -316 237 -31 5 -58 8 -59 7z m87 -40 c108 -29
154 -146 150 -380 -5 -269 -81 -364 -272 -340 -125 15 -180 127 -181 364 0
168 26 267 82 320 44 41 143 57 221 36z"/>
<path d="M3268 1486 c-21 -19 -42 -45 -47 -60 -9 -21 -7 -28 12 -41 30 -21 32
-20 82 26 49 45 58 81 26 99 -28 14 -32 13 -73 -24z"/>
<path d="M3303 1278 c-99 -98 -123 -127 -123 -150 0 -21 6 -29 25 -34 14 -4
28 -5 30 -3 40 35 239 238 246 251 7 13 4 23 -11 38 -11 11 -25 20 -32 20 -6
0 -67 -55 -135 -122z"/>
<path d="M3505 1235 c-45 -44 -55 -71 -33 -93 21 -21 48 -13 89 26 44 43 55
74 32 93 -27 23 -41 18 -88 -26z"/>
</g>
</svg>
